# Created using SwiftConverter

# Vertex Array
v -4.518 1.000 -3.113
v -1.013 1.000 0.000
v -4.518 0.000 -3.113
v -1.013 -0.000 -0.000
v -8.004 1.000 -0.017
v -8.004 0.000 -0.017
v -9.000 1.000 -1.021
v -9.000 0.000 -1.021
v -4.500 1.000 -5.017
v -4.500 0.000 -5.017
v 0.000 1.000 -1.021
v 0.000 0.000 -1.021

# Normal Array
vn -0.664 0.000 0.748
vn -0.664 -0.000 0.748
vn 0.664 -0.000 0.748
vn 0.664 0.000 0.748
vn -0.710 0.000 0.704
vn -0.710 -0.000 0.704
vn -0.664 -0.000 -0.748
vn -0.664 0.000 -0.748
vn 0.664 0.000 -0.748
vn 0.664 0.000 -0.748
vn 0.710 -0.000 0.704
vn 0.710 0.000 0.704
vn 0.000 1.000 0.000
vn 0.000 1.000 0.000
vn -0.000 1.000 0.000
vn 0.000 1.000 0.000
vn -0.000 -1.000 -0.000
vn -0.000 -1.000 -0.000
vn 0.000 -1.000 -0.000
vn -0.000 -1.000 -0.000

# Facets
f 1//1 3//1 2//1
f 3//2 4//2 2//2
f 5//3 6//3 1//3
f 6//4 3//4 1//4
f 7//5 8//5 5//5
f 8//6 6//6 5//6
f 9//7 10//7 7//7
f 10//8 8//8 7//8
f 11//9 12//9 9//9
f 12//10 10//10 9//10
f 2//11 4//11 11//11
f 4//12 12//12 11//12
f 5//13 1//13 7//13
f 1//14 9//14 7//14
f 1//15 2//15 9//15
f 2//16 11//16 9//16
f 4//17 3//17 12//17
f 3//18 10//18 12//18
f 3//19 6//19 10//19
f 6//20 8//20 10//20

# Thankyou for using SwiftConverter

